<svg width="32" height="32" viewBox="0 0 32 32" xmlns="http://www.w3.org/2000/svg">
  <defs>
    <linearGradient id="cloudGradient" x1="0%" y1="0%" x2="100%" y2="100%">
      <stop offset="0%" style="stop-color:#10b981;stop-opacity:1" />
      <stop offset="100%" style="stop-color:#059669;stop-opacity:1" />
    </linearGradient>
    <linearGradient id="letterGradient" x1="0%" y1="0%" x2="100%" y2="100%">
      <stop offset="0%" style="stop-color:#ffffff;stop-opacity:1" />
      <stop offset="100%" style="stop-color:#f0fdf4;stop-opacity:1" />
    </linearGradient>
  </defs>
  
  <!-- Cloud shape -->
  <path d="M25.6 19.2c1.2 0 2.4-.8 2.4-2.4 0-2.4-2-4.4-4.4-4.4-.4-2.4-2.4-4.4-5.2-4.4-2 0-3.6 1.2-4.4 2.8-.8-.4-1.6-.4-2.4 0C10.4 12 9.6 13.6 9.6 15.2c-1.6 0-3.2 1.6-3.2 3.2s1.6 3.2 3.2 3.2h16z" 
        fill="url(#cloudGradient)" 
        stroke="#047857" 
        stroke-width="0.8"/>
  
  <!-- Letter S -->
  <path d="M14.4 14.4c0-.8.8-1.6 1.6-1.6h1.6c.8 0 1.6.8 1.6 1.6s-.8 1.6-1.6 1.6h-1.6c-.8 0-1.6.8-1.6 1.6s.8 1.6 1.6 1.6h1.6c.8 0 1.6-.8 1.6-1.6" 
        fill="none" 
        stroke="url(#letterGradient)" 
        stroke-width="2" 
        stroke-linecap="round"/>
  
  <!-- Subtle glow effect -->
  <circle cx="16" cy="16" r="14.4" fill="none" stroke="rgba(16,185,129,0.3)" stroke-width="0.8" opacity="0.5"/>
</svg>